<svg width="21" height="20" viewBox="0 0 21 20" fill="none" xmlns="http://www.w3.org/2000/svg">
<path d="M8.44738 11.1183H6.32896C5.98685 11.1183 5.88159 10.9867 5.88159 10.6709C5.88159 9.81569 5.88159 8.93411 5.88159 8.07885C5.88159 7.73674 6.01317 7.60516 6.32896 7.60516H8.44738V5.72358C8.42107 4.89463 8.61843 4.05253 9.02633 3.30253C9.46054 2.55253 10.1448 1.9999 10.9342 1.72358C11.4737 1.52621 12 1.44727 12.5658 1.44727H14.6579C14.9605 1.44727 15.0921 1.57884 15.0921 1.88148V4.31569C15.0921 4.61832 14.9605 4.7499 14.6579 4.7499C14.079 4.7499 13.5 4.7499 12.9211 4.77621C12.3421 4.80253 12.0395 5.05253 12.0395 5.65779C12.0132 6.30253 12.0395 6.92095 12.0395 7.57884H14.5C14.8421 7.57884 14.9737 7.71042 14.9737 8.05253V10.6446C14.9737 10.9867 14.8684 11.1183 14.5 11.1183H12.0658V18.0788C12.0658 18.4473 11.9342 18.5657 11.579 18.5657H8.90791C8.59212 18.5657 8.46054 18.4341 8.46054 18.1183L8.44738 11.1183Z" fill="white"/>
</svg>
