<svg width="25" height="24" viewBox="0 0 25 24" fill="none" xmlns="http://www.w3.org/2000/svg">
<path d="M12.5 0.75C10.312 0.75 8.21354 1.61919 6.66637 3.16637C5.11919 4.71354 4.25 6.81196 4.25 9C4.25 13.3575 11.6 22.575 11.915 22.9725C11.9853 23.0601 12.0743 23.1308 12.1756 23.1794C12.2768 23.2279 12.3877 23.2532 12.5 23.2532C12.6123 23.2532 12.7232 23.2279 12.8244 23.1794C12.9257 23.1308 13.0147 23.0601 13.085 22.9725C13.4 22.575 20.75 13.3575 20.75 9C20.75 6.81196 19.8808 4.71354 18.3336 3.16637C16.7865 1.61919 14.688 0.75 12.5 0.75ZM12.5 11.25C11.9067 11.25 11.3266 11.0741 10.8333 10.7444C10.3399 10.4148 9.95542 9.94623 9.72836 9.39805C9.5013 8.84987 9.44189 8.24667 9.55764 7.66473C9.6734 7.08279 9.95912 6.54824 10.3787 6.12868C10.7982 5.70912 11.3328 5.4234 11.9147 5.30764C12.4967 5.19189 13.0999 5.2513 13.6481 5.47836C14.1962 5.70542 14.6648 6.08994 14.9944 6.58329C15.3241 7.07664 15.5 7.65666 15.5 8.25C15.5 9.04565 15.1839 9.80871 14.6213 10.3713C14.0587 10.9339 13.2956 11.25 12.5 11.25Z" fill="white"/>
</svg>
