<svg width="25" height="24" viewBox="0 0 25 24" fill="none" xmlns="http://www.w3.org/2000/svg">
<path d="M23.0262 16.95C22.9648 16.9013 18.5 13.683 17.2745 13.914C16.6895 14.0175 16.355 14.4165 15.6838 15.2153C15.5758 15.3443 15.3162 15.6532 15.1145 15.873C14.6903 15.7346 14.2765 15.5662 13.8762 15.369C11.8104 14.3633 10.1412 12.6941 9.1355 10.6283C8.93815 10.2281 8.76972 9.81425 8.6315 9.39C8.852 9.1875 9.161 8.928 9.293 8.817C10.088 8.1495 10.4878 7.815 10.5912 7.2285C10.8035 6.0135 7.5875 1.518 7.55375 1.4775C7.40784 1.26905 7.21741 1.09565 6.99625 0.969827C6.7751 0.844008 6.52874 0.768921 6.275 0.75C4.9715 0.75 1.25 5.57775 1.25 6.39075C1.25 6.438 1.31825 11.241 7.241 17.2658C13.2597 23.1817 18.062 23.25 18.1092 23.25C18.923 23.25 23.75 19.5285 23.75 18.225C23.7313 17.9722 23.6567 17.7266 23.5315 17.5061C23.4063 17.2856 23.2338 17.0957 23.0262 16.95Z" fill="white"/>
</svg>
